<svg width="41" height="40" viewBox="0 0 41 40" fill="none" xmlns="http://www.w3.org/2000/svg">
<rect x="0.59375" y="0.5" width="39" height="39" rx="19.5" stroke="#F1F1F1"/>
<path d="M26.0938 20H28.0938M26.0938 20C26.0938 18.8954 25.1983 18 24.0938 18C22.9892 18 22.0938 18.8954 22.0938 20M26.0938 20C26.0938 21.1046 25.1983 22 24.0938 22C22.9892 22 22.0938 21.1046 22.0938 20M14.0938 14C14.0938 15.1046 14.9892 16 16.0938 16C17.1983 16 18.0938 15.1046 18.0938 14M14.0938 14C14.0938 12.8954 14.9892 12 16.0938 12C17.1983 12 18.0938 12.8954 18.0938 14M14.0938 14H12.0938M18.0938 14L28.0938 14M22.0938 20L12.0938 20M14.0937 26C14.0937 27.1046 14.9892 28 16.0937 28C17.1983 28 18.0937 27.1046 18.0938 26M14.0937 26C14.0937 24.8954 14.9892 24 16.0938 24C17.1983 24 18.0938 24.8954 18.0938 26M14.0937 26L12.0937 26M18.0938 26H28.0937" stroke="#F1F1F1" stroke-width="2" stroke-linecap="round" stroke-linejoin="round"/>
</svg>
