<svg width="78" height="48" viewBox="0 0 78 48" fill="none" xmlns="http://www.w3.org/2000/svg">
<rect x="0.5" y="0.5" width="77" height="47" rx="23.5" stroke="#F1F1F1"/>
<path d="M11.333 19H24.6663M11.333 24H24.6663M11.333 29H24.6663" stroke="#F1F1F1" stroke-width="2" stroke-linecap="round" stroke-linejoin="round"/>
<g clip-path="url(#clip0_5_11723)">
<path d="M54.0003 10.6667C46.6403 10.6667 40.667 16.6401 40.667 24.0001C40.667 31.3601 46.6403 37.3334 54.0003 37.3334C61.3603 37.3334 67.3337 31.3601 67.3337 24.0001C67.3337 16.6401 61.3603 10.6667 54.0003 10.6667ZM54.0003 14.6667C56.2137 14.6667 58.0003 16.4534 58.0003 18.6667C58.0003 20.8801 56.2137 22.6667 54.0003 22.6667C51.787 22.6667 50.0003 20.8801 50.0003 18.6667C50.0003 16.4534 51.787 14.6667 54.0003 14.6667ZM54.0003 33.6001C50.667 33.6001 47.7203 31.8934 46.0003 29.3067C46.0403 26.6534 51.3337 25.2001 54.0003 25.2001C56.6537 25.2001 61.9603 26.6534 62.0003 29.3067C60.2803 31.8934 57.3337 33.6001 54.0003 33.6001Z" fill="#F1F1F1"/>
</g>
<defs>
<clipPath id="clip0_5_11723">
<rect width="32" height="32" fill="white" transform="translate(38 8)"/>
</clipPath>
</defs>
</svg>
